<svg width="52" height="56" viewBox="0 0 52 56" fill="none" xmlns="http://www.w3.org/2000/svg">
<path d="M50.8375 7.52806L48.4445 5.42089L50.8375 3.31414C51.2096 2.98602 51.3369 2.4746 51.1622 2.01062C50.9866 1.5462 50.5529 1.24627 50.0569 1.24627H40.1542V0.820738C40.1542 0.367431 39.7868 0 39.3335 0C38.8801 0 38.5127 0.367431 38.5127 0.820738V11.8898L31.7721 15.55C31.7349 15.2535 31.646 14.9621 31.5055 14.6878L30.5557 12.8336C29.9037 11.5604 28.3374 11.0558 27.0651 11.7074L26.3307 12.0833C25.7137 12.3995 25.257 12.9361 25.0442 13.5958C24.8315 14.255 24.8883 14.9579 25.2045 15.5744L26.1542 17.429C26.376 17.8618 26.7037 18.2045 27.089 18.4446C26.5849 19.1235 26.3456 19.9583 26.0995 20.8256L25.9226 21.452C25.7992 21.8882 26.053 22.3419 26.4892 22.465C26.5635 22.4863 26.6387 22.4962 26.7126 22.4962C27.0707 22.4962 27.3996 22.2603 27.5022 21.8985L27.6791 21.2734C28.0388 20.0049 28.2597 19.3256 28.9629 18.9436L30.2237 18.2588L30.3792 18.1793C30.4309 18.1528 30.4792 18.1229 30.5284 18.0934L39.5142 13.2138C39.4574 14.3371 38.8528 15.3983 37.8573 16.0029L32.0139 19.5533C32.007 19.5571 32.0002 19.561 31.9938 19.5653L30.175 20.6701C29.7879 20.9055 29.6645 21.4105 29.8999 21.7981C30.1216 22.1633 30.583 22.2932 30.9594 22.1099L29.5794 26.2816L28.5707 26.6951L25.8278 27.8192L26.6182 25.025C26.7413 24.5888 26.4879 24.1351 26.0517 24.0116C25.615 23.8877 25.1617 24.1419 25.0383 24.5781L23.7894 28.9946C23.7732 29.0514 23.7625 29.1138 23.7599 29.1732L23.4331 35.1768C23.4233 35.4058 23.472 35.8386 23.366 36.0621L19.7361 43.6986H17.0983C15.553 43.6986 14.296 44.9556 14.296 46.5005V48.8696C13.9423 48.7077 13.5496 48.6171 13.1356 48.6171H6.43685C4.89193 48.6171 3.63497 49.8736 3.63497 51.419V54.3584H1.66452C1.21121 54.3584 0.843781 54.7258 0.843781 55.1791C0.843781 55.6325 1.21121 55.9999 1.66452 55.9999H50.056C50.5093 55.9999 50.8768 55.6325 50.8768 55.1791C50.8768 54.7258 50.5093 54.3584 50.056 54.3584H47.9215V33.2034C47.9215 31.6584 46.6646 30.4015 45.1196 30.4015H40.1542V16.0832C41.0642 14.8498 41.4013 13.2331 40.9788 11.6967C40.9125 11.4553 40.7395 11.2571 40.5088 11.1592C40.3956 11.1109 40.2742 11.0896 40.1542 11.0943V9.59593H50.0565C50.5529 9.59593 50.9866 9.296 51.1617 8.83201C51.3369 8.36802 51.2096 7.85619 50.8375 7.52806ZM26.6067 14.0999C26.6849 13.8577 26.8523 13.6603 27.0788 13.5445L27.8132 13.1686C27.9516 13.0976 28.0995 13.0639 28.2456 13.0639C28.5917 13.0639 28.9262 13.2531 29.0945 13.5817L30.0447 15.4364C30.2665 15.8696 30.1229 16.3947 29.7286 16.66L29.4611 16.8048L28.8967 17.0941C28.4297 17.3333 27.8547 17.1479 27.6154 16.6805L26.6652 14.8263C26.5494 14.5998 26.5285 14.3418 26.6067 14.0999ZM24.9575 43.9511C24.6785 43.8238 24.3752 43.7405 24.0564 43.711L24.9575 42.5143V43.9511ZM28.8544 37.3378C29.2492 36.8649 29.3581 36.3124 29.4461 35.8672C29.4684 35.7613 29.8734 33.549 29.8734 33.549C29.8734 33.549 30.2566 33.7878 30.2968 33.8049C30.3246 33.8173 30.3442 33.8447 30.3472 33.8767L30.7937 38.4153H28.0431L28.8544 37.3378ZM33.7079 32.8077L33.0149 38.4115H32.4428L31.981 33.7161C31.922 33.1145 31.5537 32.5894 31.0141 32.3284L30.1887 31.805L30.7386 28.7574C30.7386 28.7574 33.0551 31.5093 33.1089 31.5794C33.5883 32.2028 33.7523 32.4523 33.7079 32.8077ZM24.8426 36.7798C25.0083 36.2808 25.0852 35.7728 25.0724 35.2563L25.3706 29.7807L29.1667 28.2251L28.4767 32.0472C28.4746 32.0575 28.4724 32.0682 28.4712 32.0784L27.9004 35.2388C27.826 35.566 27.7611 36.0625 27.5569 36.3321L22.0108 43.6986H21.5536L24.8426 36.7798ZM5.27645 51.4185C5.27645 50.7789 5.79683 50.2586 6.43685 50.2586H13.1356C13.7756 50.2586 14.2965 50.7789 14.2965 51.4185V54.3584H5.27645V51.4185ZM15.9375 51.4185V46.5005C15.9375 45.8605 16.4583 45.3401 17.0983 45.3401H23.7971C24.4371 45.3401 24.9575 45.8605 24.9575 46.5005V54.3584H15.9379L15.9375 51.4185ZM46.28 33.2034V54.3584H37.2605V49.4374C37.2605 48.9841 36.893 48.6167 36.4397 48.6167C35.986 48.6167 35.6186 48.9841 35.6186 49.4374V54.3584H26.599V41.2168C26.599 40.5772 27.1194 40.0568 27.7594 40.0568H34.4582C35.0982 40.0568 35.6186 40.5772 35.6186 41.2168V45.3311C35.6186 45.7845 35.986 46.1519 36.4393 46.1519C36.893 46.1519 37.26 45.7845 37.26 45.3311V33.2034C37.26 32.5633 37.7808 32.043 38.4209 32.043H39.3249C39.3275 32.043 39.3305 32.0434 39.3335 32.0434C39.336 32.0434 39.339 32.043 39.3416 32.043H45.1192C45.7592 32.043 46.28 32.5638 46.28 33.2034ZM38.4209 30.4015C36.8759 30.4015 35.619 31.6584 35.619 33.2034V38.6678C35.325 38.5337 35.0046 38.4487 34.6675 38.4239L35.337 33.0098C35.4686 31.9545 34.9303 31.2551 34.4099 30.5784C34.3548 30.5066 31.1645 26.7186 31.1645 26.7186L33.1217 20.8013L38.5127 17.526V30.4015H38.4209ZM40.1542 7.95402V2.88818H48.8371L46.967 4.53478C46.7124 4.75908 46.5663 5.08208 46.5663 5.42131C46.5663 5.76055 46.7124 6.08354 46.967 6.30785L48.8371 7.95445L40.1542 7.95402Z" fill="#4A5E5E"/>
</svg>
